# Rhino

mtllib sBarbershop.mtl
usemtl New material 001
v 105.52987 223.17809 116.32565
v 105.52987 223.17809 104.99999
v 105.52987 273.17810 116.32565
v 105.52987 273.17810 105
vt 1.22324e-08 1.34512e-08
vt 1.22324e-08 0.99999
vt 1 1.34512e-08
vt 1 0.99999
vn -1 2.77555e-16 0
vn -1 2.77555e-16 0
vn -1 2.77555e-16 0
vn -1 2.77555e-16 0
f 2/2/2 1/1/1 3/3/3 4/4/4
usemtl New material 002
v 107.22987 224.57809 116.32564
v 107.22987 224.57808 104.99998
v 76.77567 224.57809 116.32564
v 76.77567 224.57808 104.99998
vt 1 -1.33226e-14
vt 1 1
vt 1.36963e-09 -1.33226e-14
vt 1.36963e-09 1
vn 2.77555e-16 1 -3.53180e-07
vn 2.77555e-16 1 -3.53180e-07
vn 2.77555e-16 1 -3.53180e-07
vn 2.77555e-16 1 -3.53180e-07
f 8/8/8 7/7/7 5/5/5 6/6/6
usemtl Material.001
v 90.82987 280.23913 90.39815
v 81.62987 280.23913 90.39815
v 81.62987 280.23913 122.19950
v 90.82987 280.23913 122.19950
v 81.62987 280.23913 90.39815
v 81.62987 289.43913 90.39815
v 81.62987 289.43913 122.19950
v 81.62987 280.23913 122.19950
v 90.82987 280.23913 90.39815
v 90.82987 289.43913 90.39815
v 90.82987 289.43913 122.19950
v 90.82987 280.23913 122.19950
v 90.82987 289.43913 90.39815
v 81.62987 289.43913 90.39815
v 81.62987 289.43913 122.19950
v 90.82987 289.43913 122.19950
vt 9.89999e-05 9.89999e-05
vt 0.99990 9.89999e-05
vt 0.99990 0.98752
vt 9.89999e-05 0.98752
vt 9.89999e-05 9.89999e-05
vt 0.99990 9.89999e-05
vt 0.99990 0.98752
vt 9.89999e-05 0.98752
vt 9.89999e-05 9.89999e-05
vt 0.99990 9.89999e-05
vt 0.99990 0.98752
vt 9.89999e-05 0.98752
vt 9.89999e-05 9.89999e-05
vt 0.99990 9.89999e-05
vt 0.99990 0.98752
vt 9.89999e-05 0.98752
vn -2.77555e-16 -1 0
vn -2.77555e-16 -1 0
vn -2.77555e-16 -1 0
vn -2.77555e-16 -1 0
vn -1 2.77555e-16 0
vn -1 2.77555e-16 0
vn -1 2.77555e-16 0
vn -1 2.77555e-16 0
vn 1 -2.77555e-16 0
vn 1 -2.77555e-16 0
vn 1 -2.77555e-16 0
vn 1 -2.77555e-16 0
vn 2.77555e-16 1 0
vn 2.77555e-16 1 0
vn 2.77555e-16 1 0
vn 2.77555e-16 1 0
f 9/9/9 11/11/11 10/10/10
f 11/11/11 9/9/9 12/12/12
f 13/13/13 15/15/15 14/14/14
f 15/15/15 13/13/13 16/16/16
f 17/17/17 18/18/18 19/19/19
f 19/19/19 20/20/20 17/17/17
f 21/21/21 22/22/22 23/23/23
f 23/23/23 24/24/24 21/21/21
usemtl Material.002
v 93.82987 292.43913 118.77288
v 78.62987 292.43913 118.77288
v 78.62987 277.23913 118.77288
v 93.82987 277.23913 118.77288
vt 0.99989 0.99989
vt 9.99999e-05 0.99989
vt 9.99999e-05 9.99999e-05
vt 0.99989 9.99999e-05
vn 0 0 1
vn 0 0 1
vn 0 0 1
vn 0 0 1
f 25/25/25 26/26/26 27/27/27
f 27/27/27 28/28/28 25/25/25
usemtl Material.003
v 107.22987 323.17811 5.00000
v 107.22987 223.17811 4.99998
v 107.22987 298.52006 94.99999
v 107.22987 273.17809 104.99999
v 107.22987 298.52006 105
v 107.22987 223.17809 116.32564
v 107.22987 273.17809 116.32565
v 107.22987 323.17809 95
vt 1.00507 0
vt 0.00507 0
vt 0.75634 0.80821
vt 0.50253 0.89954
vt 0.75634 0.89954
vt 0.00507 1
vt 0.50253 1
vt 1.00507 0.80821
vn 1 -2.77555e-16 0
vn 1 -2.77555e-16 0
vn 1 -2.77555e-16 0
vn 1 -2.77555e-16 0
vn 1 -2.77555e-16 0
vn 1 -2.77555e-16 0
vn 1 -2.77555e-16 0
vn 1 -2.77555e-16 0
f 29/29/29 31/31/31 30/30/30
f 32/32/32 31/31/31 33/33/33
f 31/31/31 32/32/32 30/30/30
f 34/34/34 32/32/32 35/35/35
f 32/32/32 34/34/34 30/30/30
f 31/31/31 29/29/29 36/36/36
usemtl Material.004
v 107.22987 223.17809 116.32564
v 107.22987 223.17811 4.99998
v 76.77567 223.17809 104.99998
v 47.22987 223.17811 4.99998
v 47.22987 223.17809 104.99998
v 76.77567 223.17809 116.32564
vt 1 1
vt 1 0
vt 0.49152 0.89954
vt 0 0
vt 0 0.89954
vt 0.49152 1
vn -2.77555e-16 -1 0
vn -2.77555e-16 -1 0
vn -2.77555e-16 -1 0
vn -2.77555e-16 -1 0
vn -2.77555e-16 -1 0
vn -2.77555e-16 -1 0
f 37/37/37 39/39/39 38/38/38
f 40/40/40 39/39/39 41/41/41
f 39/39/39 40/40/40 38/38/38
f 39/39/39 37/37/37 42/42/42
usemtl Material.005
v 27.22987 243.17809 99.99998
v 47.22987 223.17809 99.99998
v 47.22987 223.17811 4.99998
v 27.22987 243.17811 4.99998
vt 9.99999e-05 0.99989
vt 0.99410 0.99989
vt 0.99410 9.99999e-05
vt 0.00010 9.99999e-05
vn -0.70710 -0.70710 0
vn -0.70710 -0.70710 0
vn -0.70710 -0.70710 0
vn -0.70710 -0.70710 0
f 43/43/43 45/45/45 44/44/44
f 45/45/45 43/43/43 46/46/46
usemtl Material.006
v 27.22987 243.17811 -1.30000e-05
v 27.22987 323.17811 0
v 27.22987 323.17809 100
v 27.22987 243.17809 99.99998
vt 1 0
vt 0 0
vt 0 1
vt 1 1
vn -1 2.77555e-16 0
vn -1 2.77555e-16 0
vn -1 2.77555e-16 0
vn -1 2.77555e-16 0
f 47/47/47 49/49/49 48/48/48
f 49/49/49 47/47/47 50/50/50
usemtl Material.007
v 27.22987 323.16953 70.40000
v 5.65506 323.16537 70.37144
v 5.63251 323.16537 45.39585
v 27.22987 323.16954 30.1389
v 107.22987 323.18496 0
v 107.22987 323.18494 88.39202
v 27.22987 323.16952 88.39202
v 27.22987 323.16954 0
vt 0.78500 0.79885
vt 1 0.79885
vt 1 0.51149
vt 0.78500 0.33908
vt 0 0
vt 0 1
vt 0.78500 1
vt 0.78500 0
vn -0.00019 1 0
vn -0.00019 1 0
vn -0.00019 1 0
vn -0.00019 1 0
vn -0.00019 1 0
vn -0.00019 1 0
vn -0.00019 1 0
vn -0.00019 1 0
f 51/51/51 53/53/53 52/52/52
f 53/53/53 51/51/51 54/54/54
f 54/54/54 51/51/51 55/55/55
f 56/56/56 51/51/51 57/57/57
f 51/51/51 56/56/56 55/55/55
f 54/54/54 55/55/55 58/58/58
usemtl Material.008
v 107.22987 330.97918 87.61190
v 107.22987 223.01889 98.40792
v 47.22987 223.01889 98.40792
v 27.22987 243.01889 96.40792
v 27.22987 330.97918 87.61190
vt 0.98734 0.99532
vt 0.98734 -0.00467
vt 0.24683 -0.00467
vt 0 0.18224
vt 0 0.99532
vn 2.76178e-17 0.09950 0.99503
vn 2.76178e-17 0.09950 0.99503
vn 2.76178e-17 0.09950 0.99503
vn 2.76178e-17 0.09950 0.99503
vn 2.76178e-17 0.09950 0.99503
f 59/59/59 61/61/61 60/60/60
f 61/61/61 59/59/59 62/62/62
f 62/62/62 59/59/59 63/63/63
usemtl Material.009
v 107.22987 323.17811 5.00000
v 143.57328 323.17811 5.00000
v 143.57328 223.17811 4.99998
v 107.22987 186.83469 4.99997
v 107.22987 223.17811 4.99998
vt 0.02777 0.96654
vt 1.02777 0.97769
vt 0.97222 0.25650
vt 0.02777 0.01858
vt 0.02777 0.25650
vn 0 0 1
vn 0 0 1
vn 0 0 1
vn 0 0 1
vn 0 0 1
f 64/64/64 66/66/66 65/65/65
f 66/66/66 68/68/68 67/67/67
f 66/66/66 64/64/64 68/68/68
usemtl Material.010
v 107.22987 186.83469 4.99997
v 5.62987 186.83469 4.99997
v 47.22987 223.17811 4.99998
v 5.62987 243.16798 4.99998
v 27.22987 243.17811 4.99998
v 107.22987 223.17811 4.99998
vt 1 0
vt 0 0
vt 0.40999 0.64864
vt 0 1
vt 0.21500 1
vt 1 0.64864
vn 0 0 1
vn 0 0 1
vn 0 0 1
vn 0 0 1
vn 0 0 1
vn 0 0 1
f 69/69/69 71/71/71 70/70/70
f 70/70/70 73/73/73 72/72/72
f 73/73/73 70/70/70 71/71/71
f 71/71/71 69/69/69 74/74/74
usemtl Material.011
v 107.22987 323.17810 55.53333
v 143.57328 323.17810 43.41886
v 143.57328 223.17810 43.41884
v 107.22987 223.17810 55.53331
vt 0.99989 9.99999e-05
vt 0.99989 0.99291
vt 0.00010 0.99293
vt 9.99999e-05 0.00011
vn 0.31619 -8.77625e-17 0.94869
vn 0.31619 -8.77625e-17 0.94869
vn 0.31619 -8.77625e-17 0.94869
vn 0.31619 -8.77625e-17 0.94869
f 75/75/75 77/77/77 76/76/76
f 77/77/77 75/75/75 78/78/78
usemtl Material.012
v 143.57328 223.17810 43.41884
v 107.22987 186.83469 43.41883
v 107.22987 223.17810 55.53331
vt 0.00980 0
vt 0.99019 0
vt 0.5 1.01785
vn 0.30151 -0.30151 0.90453
vn 0.30151 -0.30151 0.90453
vn 0.30151 -0.30151 0.90453
f 79/79/79 81/81/81 80/80/80
usemtl Material.013
v 107.22987 223.17810 55.53331
v 107.22987 186.83469 43.41883
v 47.22987 186.83469 43.41883
v 47.22987 223.17810 55.53331
vt 0 0.01315
vt 0 1.01315
vt 1.00840 1.01315
vt 1.00840 0.01315
vn -8.77625e-17 -0.31619 0.94869
vn -8.77625e-17 -0.31619 0.94869
vn -8.77625e-17 -0.31619 0.94869
vn -8.77625e-17 -0.31619 0.94869
f 82/82/82 84/84/84 83/83/83
f 84/84/84 82/82/82 85/85/85
usemtl Material.014
v 107.22987 195.97810 63.61986
v 134.42987 223.17810 63.61986
v 134.42987 223.17810 46.46665
v 107.22987 195.97810 46.46664
vt 0 1
vt 1 1
vt 1 0
vt 0 0
vn 0.70710 -0.70710 0
vn 0.70710 -0.70710 0
vn 0.70710 -0.70710 0
vn 0.70710 -0.70710 0
f 86/86/86 88/88/88 87/87/87
f 88/88/88 86/86/86 89/89/89
usemtl Material.015
v 134.42987 323.17810 46.46666
v 134.42987 323.17810 63.61988
v 134.42987 223.17810 63.61986
v 134.42987 223.17810 46.46665
vt 0.99989 9.99999e-05
vt 0.99989 0.99378
vt 9.99999e-05 0.99378
vt 9.99999e-05 9.99999e-05
vn 1 -2.77555e-16 0
vn 1 -2.77555e-16 0
vn 1 -2.77555e-16 0
vn 1 -2.77555e-16 0
f 90/90/90 91/91/91 92/92/92
f 92/92/92 93/93/93 90/90/90
usemtl Material.016
v 47.22987 195.97810 63.61986
v 107.22987 195.97810 63.61986
v 107.22987 195.97810 46.46664
v 47.22987 195.97810 46.46664
vt 1 1
vt 0 1
vt 0 0
vt 1 0
vn -2.77555e-16 -1 0
vn -2.77555e-16 -1 0
vn -2.77555e-16 -1 0
vn -2.77555e-16 -1 0
f 94/94/94 96/96/96 95/95/95
f 96/96/96 94/94/94 97/97/97
usemtl Material.017
v 27.22987 293.17810 50.39999
v 5.62987 293.17810 50.39999
v 5.62987 323.17810 50.40000
v 27.22987 323.17810 50.40000
vt 0 -0.03389
vt 1 -0.03389
vt 1 1
vt 0 1
vn 0 0 1
vn 0 0 1
vn 0 0 1
vn 0 0 1
f 98/98/98 100/100/100 99/99/99
f 100/100/100 98/98/98 101/101/101
usemtl Material.018
v 27.22987 243.17811 4.99998
v 5.62987 243.17811 4.99998
v 5.62987 293.17810 50.39999
v 27.22987 293.17810 50.39999
vt 9.89999e-05 0.98913
vt 9.89999e-05 9.99999e-05
vt 0.99990 9.89999e-05
vt 0.99990 0.98913
vn -1.86582e-16 -0.67223 0.74033
vn -1.86582e-16 -0.67223 0.74033
vn -1.86582e-16 -0.67223 0.74033
vn -1.86582e-16 -0.67223 0.74033
f 102/102/102 104/104/104 103/103/103
f 104/104/104 102/102/102 105/105/105
usemtl Material.019
v 5.62987 295.10986 45.39950
v 5.62987 285.44311 70.38269
v 5.62987 243.17810 32.00615
v 5.62987 323.14141 70.38270
v 5.62987 243.17811 4.99998
v 5.62987 250.61643 4.99955
v 5.62987 323.17405 45.40449
vt 0.35391 0.61559
vt 0.46997 0.99059
vt 0.98977 0.42043
vt 0.00920 0.98672
vt 0.99204 0.01614
vt 0.90113 0.01537
vt 0.01090 0.61278
vn -1 2.77555e-16 0
vn -1 2.77555e-16 0
vn -1 2.77555e-16 0
vn -1 2.77555e-16 0
vn -1 2.77555e-16 0
vn -1 2.77555e-16 0
vn -1 2.77555e-16 0
f 106/106/106 108/108/108 107/107/107
f 109/109/109 106/106/106 107/107/107
f 108/108/108 111/111/111 110/110/110
f 108/108/108 106/106/106 111/111/111
f 106/106/106 109/109/109 112/112/112
usemtl Material.020
v 137.22987 231.17810 30.99998
v 133.22987 231.17810 30.99998
v 128.48645 231.17810 40.99998
v 137.22987 231.17811 0.49664
v 133.22987 231.17811 0.49664
v 134.42987 231.17810 45.93331
v 128.42987 231.17810 47.93331
v 128.42987 231.17810 50.61986
v 107.22987 231.17811 4.99998
v 107.22987 231.17810 54.99998
v 111.22987 231.17810 38.83002
v 115.18121 231.17810 44.69213
v 132.42987 231.17810 53.93331
v 134.42987 231.17810 53.93331
v 111.22987 231.17811 4.99998
v 141.97329 231.17810 43.41884
v 137.22987 272.37810 30.99999
v 133.22987 272.37810 30.99999
v 128.48645 272.37810 40.99999
v 137.22987 272.37811 0.49665
v 133.22987 272.37811 0.49665
v 134.42987 272.37810 45.93332
v 128.42987 272.37810 47.93332
v 128.42987 272.37810 50.61987
v 107.22987 272.37811 4.99999
v 107.22987 272.37810 54.99999
v 111.22987 272.37810 38.83003
v 115.18121 272.37810 44.69213
v 132.42987 272.37810 53.93332
v 134.42987 272.37810 53.93332
v 111.22987 272.37811 4.99999
v 141.97329 272.37810 43.41885
v 137.22987 313.57811 31
v 133.22987 313.57811 31
v 128.48645 313.57810 41
v 137.22987 313.57811 0.49665
v 133.22987 313.57811 0.49665
v 134.42987 313.57810 45.93333
v 128.42987 313.57810 47.93333
v 128.42987 313.57810 50.61988
v 107.22987 313.57811 4.99999
v 107.22987 313.57810 55
v 111.22987 313.57810 38.83004
v 115.18121 313.57810 44.69214
v 132.42987 313.57810 53.93333
v 134.42987 313.57810 53.93333
v 111.22987 313.57811 4.99999
v 141.97329 313.57810 43.41886
v 99.22987 193.17810 30.99997
v 99.22987 197.17810 30.99998
v 99.22987 201.92152 40.99998
v 99.22987 193.17811 0.49663
v 99.22987 197.17811 0.49664
v 99.22987 195.97810 45.93331
v 99.22987 201.97810 47.93331
v 99.22987 201.97810 50.61986
v 99.22987 223.17811 4.99998
v 99.22987 223.17810 54.99998
v 99.22987 219.17810 38.83002
v 99.22987 215.22676 44.69213
v 99.22987 197.97810 53.93331
v 99.22987 195.97810 53.93331
v 99.22987 219.17811 4.99998
v 99.22987 188.43468 43.41883
vt 0.43464 0.14579
vt 0.43476 0.25950
vt 0.25329 0.39483
vt 0.98864 0.14429
vt 0.98876 0.25800
vt 0.16351 0.22612
vt 0.12737 0.39678
vt 0.07858 0.39691
vt 0.90778 0.99733
vt -0.00030 0.99978
vt 0.29324 0.88528
vt 0.18665 0.77324
vt 0.01828 0.28336
vt 0.01821 0.22651
vt 0.90766 0.88362
vt 0.20894 0.01155
vt 0.43726 0.14332
vt 0.43764 0.25703
vt 0.25647 0.39335
vt 0.99124 0.13878
vt 0.99162 0.25249
vt 0.16631 0.22513
vt 0.13055 0.39599
vt 0.08176 0.39639
vt 0.91231 0.99226
vt 0.00423 0.99969
vt 0.29752 0.88358
vt 0.19068 0.77213
vt 0.02120 0.28318
vt 0.02101 0.22632
vt 0.91193 0.87855
vt 0.21126 0.01032
vt 0.43727 0.14331
vt 0.43764 0.25702
vt 0.25647 0.39334
vt 0.99126 0.13882
vt 0.99163 0.25253
vt 0.16632 0.22511
vt 0.13056 0.39597
vt 0.08177 0.39636
vt 0.91229 0.99229
vt 0.00421 0.99966
vt 0.29751 0.88357
vt 0.19067 0.77211
vt 0.02121 0.28314
vt 0.02102 0.22629
vt 0.91192 0.87858
vt 0.21127 0.01030
vt 0.43644 0.14579
vt 0.43652 0.25949
vt 0.25499 0.39463
vt 0.99044 0.14489
vt 0.99052 0.25860
vt 0.16528 0.22582
vt 0.12907 0.39644
vt 0.08028 0.39652
vt 0.90921 0.99784
vt 0.00112 0.99931
vt 0.29472 0.88512
vt 0.18818 0.77297
vt 0.02002 0.28291
vt 0.01998 0.22606
vt 0.90914 0.88413
vt 0.21081 0.01131
vn -2.77555e-16 -1 0
vn -2.77555e-16 -1 0
vn -2.77555e-16 -1 0
vn -2.77555e-16 -1 0
vn -2.77555e-16 -1 0
vn -2.77555e-16 -1 0
vn -2.77555e-16 -1 0
vn -2.77555e-16 -1 0
vn -2.77555e-16 -1 0
vn -2.77555e-16 -1 0
vn -2.77555e-16 -1 0
vn -2.77555e-16 -1 0
vn -2.77555e-16 -1 0
vn -2.77555e-16 -1 0
vn -2.77555e-16 -1 0
vn -2.77555e-16 -1 0
vn -2.77555e-16 -1 0
vn -2.77555e-16 -1 0
vn -2.77555e-16 -1 0
vn -2.77555e-16 -1 0
vn -2.77555e-16 -1 0
vn -2.77555e-16 -1 0
vn -2.77555e-16 -1 0
vn -2.77555e-16 -1 0
vn -2.77555e-16 -1 0
vn -2.77555e-16 -1 0
vn -2.77555e-16 -1 0
vn -2.77555e-16 -1 0
vn -2.77555e-16 -1 0
vn -2.77555e-16 -1 0
vn -2.77555e-16 -1 0
vn -2.77555e-16 -1 0
vn -2.77555e-16 -1 0
vn -2.77555e-16 -1 0
vn -2.77555e-16 -1 0
vn -2.77555e-16 -1 0
vn -2.77555e-16 -1 0
vn -2.77555e-16 -1 0
vn -2.77555e-16 -1 0
vn -2.77555e-16 -1 0
vn -2.77555e-16 -1 0
vn -2.77555e-16 -1 0
vn -2.77555e-16 -1 0
vn -2.77555e-16 -1 0
vn -2.77555e-16 -1 0
vn -2.77555e-16 -1 0
vn -2.77555e-16 -1 0
vn -2.77555e-16 -1 0
vn 1 -2.77555e-16 0
vn 1 -2.77555e-16 0
vn 1 -2.77555e-16 0
vn 1 -2.77555e-16 0
vn 1 -2.77555e-16 0
vn 1 -2.77555e-16 0
vn 1 -2.77555e-16 0
vn 1 -2.77555e-16 0
vn 1 -2.77555e-16 0
vn 1 -2.77555e-16 0
vn 1 -2.77555e-16 0
vn 1 -2.77555e-16 0
vn 1 -2.77555e-16 0
vn 1 -2.77555e-16 0
vn 1 -2.77555e-16 0
vn 1 -2.77555e-16 0
f 113/113/113 115/115/115 114/114/114
f 116/116/116 114/114/114 117/117/117
f 118/118/118 120/120/120 119/119/119
f 121/121/121 123/123/123 122/122/122
f 119/119/119 124/124/124 115/115/115
f 114/114/114 116/116/116 113/113/113
f 113/113/113 118/118/118 119/119/119
f 120/120/120 118/118/118 125/125/125
f 122/122/122 123/123/123 124/124/124
f 115/115/115 113/113/113 119/119/119
f 125/125/125 118/118/118 126/126/126
f 124/124/124 119/119/119 122/122/122
f 123/123/123 121/121/121 127/127/127
f 118/118/118 113/113/113 128/128/128
f 129/129/129 131/131/131 130/130/130
f 129/129/129 133/133/133 132/132/132
f 134/134/134 136/136/136 135/135/135
f 137/137/137 139/139/139 138/138/138
f 135/135/135 140/140/140 131/131/131
f 133/133/133 129/129/129 130/130/130
f 129/129/129 134/134/134 135/135/135
f 136/136/136 134/134/134 141/141/141
f 138/138/138 139/139/139 140/140/140
f 131/131/131 129/129/129 135/135/135
f 141/141/141 134/134/134 142/142/142
f 140/140/140 135/135/135 138/138/138
f 139/139/139 137/137/137 143/143/143
f 134/134/134 129/129/129 144/144/144
f 145/145/145 147/147/147 146/146/146
f 148/148/148 146/146/146 149/149/149
f 150/150/150 152/152/152 151/151/151
f 153/153/153 155/155/155 154/154/154
f 151/151/151 156/156/156 147/147/147
f 146/146/146 148/148/148 145/145/145
f 145/145/145 150/150/150 151/151/151
f 152/152/152 150/150/150 157/157/157
f 154/154/154 155/155/155 156/156/156
f 147/147/147 145/145/145 151/151/151
f 157/157/157 150/150/150 158/158/158
f 156/156/156 151/151/151 154/154/154
f 155/155/155 153/153/153 159/159/159
f 150/150/150 145/145/145 160/160/160
f 161/161/161 162/162/162 163/163/163
f 164/164/164 165/165/165 162/162/162
f 166/166/166 167/167/167 168/168/168
f 169/169/169 170/170/170 171/171/171
f 167/167/167 163/163/163 172/172/172
f 162/162/162 161/161/161 164/164/164
f 161/161/161 167/167/167 166/166/166
f 168/168/168 173/173/173 166/166/166
f 170/170/170 172/172/172 171/171/171
f 163/163/163 167/167/167 161/161/161
f 173/173/173 174/174/174 166/166/166
f 172/172/172 170/170/170 167/167/167
f 171/171/171 175/175/175 169/169/169
f 166/166/166 176/176/176 161/161/161
usemtl Material.021
v 27.22987 295.10986 50.37683
v 5.62987 295.10986 50.37683
v 5.62987 295.10986 45.39950
v 27.22987 295.10987 31.16978
vt 0.96093 0.97957
vt 0.03219 0.97873
vt 0.03236 0.73656
vt 0.96159 0.04505
vn 2.77555e-16 1 0
vn 2.77555e-16 1 0
vn 2.77555e-16 1 0
vn 2.77555e-16 1 0
f 177/177/177 179/179/179 178/178/178
f 179/179/179 177/177/177 180/180/180
usemtl None
v 56.82987 193.17810 30.99997
v 56.82987 197.17810 30.99998
v 56.82987 201.92152 40.99998
v 56.82987 193.17811 0.49663
v 56.82987 197.17811 0.49664
v 56.82987 195.97810 45.93331
v 56.82987 201.97810 47.93331
v 56.82987 201.97810 50.61986
v 56.82987 223.17811 4.99998
v 56.82987 223.17810 54.99998
v 56.82987 219.17810 38.83002
v 56.82987 215.22676 44.69213
v 56.82987 197.97810 53.93331
v 56.82987 195.97810 53.93331
v 56.82987 219.17811 4.99998
v 56.82987 188.43468 43.41883
vt 0.44229 0.13508
vt 0.44238 0.24879
vt 0.26086 0.38398
vt 0.99629 0.13405
vt 0.99637 0.24775
vt 0.17113 0.21519
vt 0.13494 0.38582
vt 0.08615 0.38591
vt 0.91515 0.98702
vt 0.00706 0.98872
vt 0.30065 0.87446
vt 0.19409 0.76234
vt 0.02588 0.27232
vt 0.02584 0.21546
vt 0.91506 0.87331
vt 0.21664 0.00067
vn 1 -2.77555e-16 0
vn 1 -2.77555e-16 0
vn 1 -2.77555e-16 0
vn 1 -2.77555e-16 0
vn 1 -2.77555e-16 0
vn 1 -2.77555e-16 0
vn 1 -2.77555e-16 0
vn 1 -2.77555e-16 0
vn 1 -2.77555e-16 0
vn 1 -2.77555e-16 0
vn 1 -2.77555e-16 0
vn 1 -2.77555e-16 0
vn 1 -2.77555e-16 0
vn 1 -2.77555e-16 0
vn 1 -2.77555e-16 0
vn 1 -2.77555e-16 0
f 181/181/181 182/182/182 183/183/183
f 184/184/184 185/185/185 182/182/182
f 186/186/186 187/187/187 188/188/188
f 189/189/189 190/190/190 191/191/191
f 187/187/187 183/183/183 192/192/192
f 182/182/182 181/181/181 184/184/184
f 181/181/181 187/187/187 186/186/186
f 188/188/188 193/193/193 186/186/186
f 190/190/190 192/192/192 191/191/191
f 183/183/183 187/187/187 181/181/181
f 193/193/193 194/194/194 186/186/186
f 192/192/192 190/190/190 187/187/187
f 191/191/191 195/195/195 189/189/189
f 186/186/186 196/196/196 181/181/181
usemtl None_20.png
v 93.82987 292.43913 116.21578
v 78.62987 292.43913 116.21578
v 78.62987 277.23913 116.21578
v 93.82987 277.23913 116.21578
vt 0.99989 0.99989
vt 9.99999e-05 0.99989
vt 9.99999e-05 9.99999e-05
vt 0.99989 9.99999e-05
vn 0 0 1
vn 0 0 1
vn 0 0 1
vn 0 0 1
f 197/197/197 198/198/198 199/199/199
f 199/199/199 200/200/200 197/197/197
