<svg width="512" height="512" xmlns="http://www.w3.org/2000/svg" version="1.1">
 <g>
  <g>
   <path fill="#FFFFFF" d="m256.01109,0.01109c-98.06324,0 -177.5101,79.51343 -177.5101,177.5101c0,78.47056 50.85664,144.98137 121.33925,168.44599c8.90879,1.67525 12.12616,-3.81647 12.12616,-8.56486c0,-4.21586 -0.09985,-15.36572 -0.16642,-30.16562c-49.40328,10.69498 -59.80981,-23.86401 -59.80981,-23.86401c-8.0878,-20.45804 -19.75909,-25.94976 -19.75909,-25.94976c-16.06466,-10.97234 1.27585,-10.73936 1.27585,-10.73936c17.79539,1.20929 27.15905,18.25026 27.15905,18.25026c15.83168,27.15905 41.53736,19.30422 51.71091,14.73334c1.55321,-11.43831 6.17957,-19.30422 11.21642,-23.6865c-39.40724,-4.44885 -80.84476,-19.70362 -80.84476,-87.72327c0,-19.42626 6.87852,-35.24685 18.25026,-47.67256c-1.96371,-4.44885 -7.97686,-22.53269 1.56431,-46.9847c0,0 14.85538,-4.7373 48.81528,18.20588c14.2119,-3.93851 29.30026,-5.90221 44.37753,-6.00206c15.08836,0.09985 30.16562,2.07465 44.37753,6.00206c33.7602,-22.94318 48.60448,-18.20588 48.60448,-18.20588c9.53007,24.45202 3.51692,42.52476 1.7862,46.9847c11.2608,12.42571 18.13931,28.25739 18.13931,47.67256c0,68.17497 -41.49299,83.20786 -80.94461,87.54576c6.16848,5.31421 11.94865,16.24217 11.94865,32.82827c0,23.74198 -0.22189,42.86869 -0.22189,48.64886c0,4.61526 3.10643,10.16245 12.2482,8.37626c71.00404,-23.22054 121.80521,-89.78683 121.80521,-168.14644c0,-97.99667 -79.44686,-177.5101 -177.5101,-177.5101l0.02219,0.01109z"/>
  </g>
  <g>
   <path fill="#FFFFFF" d="m98.69616,432.5561l-43.06066,0c-1.11077,0 -2.0124,0.9027 -2.0124,2.01346l0,21.05338c0,1.11077 0.90163,2.01453 2.0124,2.01453l16.79809,0l0,26.15693c0,0 -3.77191,1.28576 -14.1999,1.28576c-12.30274,0 -29.48924,-4.49535 -29.48924,-42.28707c0,-37.80026 17.89607,-42.77364 34.69737,-42.77364c14.54348,0 20.80902,2.56085 24.79541,3.79433c1.25268,0.38412 2.41146,-0.86322 2.41146,-1.97506l4.80373,-20.34167c0,-0.51964 -0.17606,-1.14598 -0.76932,-1.57172c-1.61867,-1.15452 -11.49608,-6.68168 -36.44941,-6.68168c-28.74659,0 -58.23369,12.23018 -58.23369,71.02299c0,58.79495 33.76052,67.55625 62.20941,67.55625c23.55553,0 37.84507,-10.06627 37.84507,-10.06627c0.58899,-0.32544 0.65301,-1.14811 0.65301,-1.52584l0,-65.66122c0,-1.11076 -0.90056,-2.01346 -2.01133,-2.01346zm221.79934,-51.95321c0,-1.12037 -0.88776,-2.02414 -1.99853,-2.02414l-24.2459,0c-1.10757,0 -2.00813,0.90377 -2.00813,2.02414c0,0.00533 0.0064,46.85605 0.0064,46.85605l-37.79278,0l0,-46.85605c0,-1.12037 -0.89203,-2.02414 -2.00067,-2.02414l-24.24483,0c-1.1033,0 -2.00279,0.90377 -2.00279,2.02414l0,126.87189c0,1.11931 0.89949,2.03054 2.00279,2.03054l24.24483,0c1.10864,0 2.00067,-0.91123 2.00067,-2.03054l0,-54.26758l37.79278,0c0,0 -0.06615,54.26331 -0.06615,54.26758c0,1.11931 0.89949,2.03054 2.00813,2.03054l24.30352,0c1.11076,0 1.99852,-0.91123 2.00066,-2.03054l0,-126.87189zm-176.12448,16.96242c0,-8.73036 -6.99965,-15.7855 -15.63504,-15.7855c-8.62686,0 -15.63185,7.05514 -15.63185,15.7855c0,8.72075 7.00499,15.7951 15.63185,15.7951c8.63539,0 15.63504,-7.07435 15.63504,-15.7951zm-1.92383,83.21263l0,-58.56447c0,-1.11183 -0.89737,-2.02093 -2.006,-2.02093l-24.16908,0c-1.10863,0 -2.10096,1.14384 -2.10096,2.25568l0,83.90512c0,2.46589 1.53651,3.19893 3.52544,3.19893l21.77574,0c2.38906,0 2.97486,-1.17266 2.97486,-3.23841l0,-25.53592zm270.71474,-60.5854l-24.06024,0c-1.1033,0 -2.00173,0.9091 -2.00173,2.0284l0,62.20941c0,0 -6.11189,4.47188 -14.78783,4.47188c-8.67487,0 -10.9775,-3.93624 -10.9775,-12.43079l0,-54.2505c0,-1.1193 -0.8963,-2.0284 -2.00067,-2.0284l-24.41875,0c-1.10223,0 -2.00493,0.9091 -2.00493,2.0284l0,58.35853c0,25.23076 14.06226,31.40347 33.40733,31.40347c15.86979,0 28.6655,-8.7677 28.6655,-8.7677c0,0 0.60926,4.62019 0.88455,5.16864c0.27636,0.54632 0.99446,1.09797 1.77019,1.09797l15.53475,-0.06829c1.10223,0 2.00493,-0.91124 2.00493,-2.02521l-0.00747,-85.16741c0,-1.1193 -0.8995,-2.0284 -2.00813,-2.0284zm55.43489,68.7577c-8.34516,-0.25395 -14.0057,-4.0408 -14.0057,-4.0408l0,-40.17758c0,0 5.58478,-3.423 12.43612,-4.03547c8.6642,-0.77572 17.01256,1.84168 17.01256,22.50986c0,21.79495 -3.76764,26.09611 -15.44298,25.74399zm9.49008,-71.48287c-13.66533,0 -22.96014,6.09695 -22.96014,6.09695l0,-42.96143c0,-1.12037 -0.89523,-2.02414 -2.00066,-2.02414l-24.31419,0c-1.10543,0 -2.00386,0.90377 -2.00386,2.02414l0,126.87189c0,1.11931 0.89843,2.03054 2.00706,2.03054l16.86959,0c0.75972,0 1.33484,-0.3916 1.75951,-1.07769c0.41935,-0.68183 1.02435,-5.8494 1.02435,-5.8494c0,0 9.94249,9.42178 28.76366,9.42178c22.09585,0 34.76778,-11.20798 34.76778,-50.31533c0,-39.10735 -20.23817,-44.21731 -33.9131,-44.21731zm-265.85766,2.50749l-18.18736,0c0,0 -0.02775,-24.02182 -0.02775,-24.02716c0,-0.9091 -0.46842,-1.36365 -1.51943,-1.36365l-24.78475,0c-0.96352,0 -1.48102,0.42361 -1.48102,1.34978l0,24.82956c0,0 -12.42011,2.99833 -13.25986,3.24054c-0.83654,0.24221 -1.45221,1.01367 -1.45221,1.93344l0,15.60304c0,1.1225 0.89629,2.02733 2.00493,2.02733l12.70714,0l0,37.53564c0,27.88017 19.55635,30.61921 32.75325,30.61921c6.02973,0 13.24279,-1.93664 14.43358,-2.37626c0.72024,-0.26462 1.13851,-1.01046 1.13851,-1.81927l0.02027,-17.16408c0,-1.11931 -0.94537,-2.0252 -2.01026,-2.0252c-1.05955,0 -3.77085,0.43107 -6.56217,0.43107c-8.9331,0 -11.96023,-4.15391 -11.96023,-9.53062c0,-5.37245 -0.00107,-35.67049 -0.00107,-35.67049l18.18842,0c1.10864,0 2.006,-0.90483 2.006,-2.02733l0,-19.54354c0,-1.11931 -0.89736,-2.02201 -2.006,-2.02201l0.00001,0z"/>
  </g>
 </g>
</svg>