<svg width="337" height="487" xmlns="http://www.w3.org/2000/svg" version="1.1">
 <g>
  <g stroke-width="7" id="svg_1">
   <path id="svg_2" d="m197,169.5c0,15.74 -12.76,28.5 -28.5,28.5l0,0c-15.74,0 -28.5,-12.76 -28.5,-28.5l0,-49c0,-15.74 12.76,-28.5 28.5,-28.5l0,0c15.74,0 28.5,12.76 28.5,28.5l0,49z" stroke="#ffffff" fill="none"/>
   <g id="svg_3">
    <path id="svg_4" d="m186.5,75.535c15.071,6.217 25.557,19.987 25.557,35.988l0,67.953c0,16.001 -10.485,29.771 -25.557,35.988l0,36.536l147,0l0,-122.694c0,-69.481 -58.203,-125.806 -130,-125.806l-17,0l0,72.035z" stroke="#ffffff" fill="none"/>
    <path id="svg_5" d="m3.5,262.5l0,95.193c0,69.482 58.203,125.807 130,125.807l70,0c71.797,0 130,-56.325 130,-125.807l0,-95.193l-330,0z" stroke="#ffffff" fill="none"/>
    <path id="svg_6" d="m150.5,252l0,-36.535c-15.071,-6.217 -25.557,-19.987 -25.557,-35.988l0,-67.953c0,-16.001 10.485,-29.771 25.557,-35.988l0,-72.036l-17,0c-71.797,0 -130,56.325 -130,125.806l0,122.694l147,0z" stroke="#ffffff" fill="#ffffff"/>
   </g>
  </g>
 </g>
</svg>