<?xml-stylesheet type="text/css" href="../style.css"?>

<svg width="72" height="73" viewBox="0 0 72 73" fill="none" version="1.1" xmlns="http://www.w3.org/2000/svg">
    <path fill-rule="evenodd" clip-rule="evenodd" d="M33.168 13L31.576 16.6461C31.208 16.7745 30.5643 17.2213 30.9341 17.9813C31.3963 18.9314 33.3991 19.5733 34.4518 19.5733V18.1097L34.6829 17.5962H35.9668H37.2763L37.5074 18.1097V19.5733C38.5601 19.5733 40.5629 18.9314 41.0251 17.9813C41.3949 17.2213 40.7512 16.7745 40.3832 16.6461L38.7912 13C39.3692 13.1097 40.0522 13.2658 40.794 13.47L40.7684 14.4122L41.0508 13.5419C41.935 13.7941 42.8927 14.1126 43.8496 14.5005L44.3631 14.9515L44.851 14.9333C45.3862 15.18 45.9127 15.4492 46.4173 15.7413C46.2895 16.192 46.1617 16.9768 46.2293 17.7759L45.2618 19.0598C45.3029 19.0598 45.861 18.94 46.1349 18.88L46.5411 19.0341C46.631 19.2273 46.7426 19.409 46.8795 19.5733C46.9495 19.6574 47.0179 19.7373 47.0849 19.8132L47.0336 20.0355L47.0592 20.1382L47.4444 20.1941C48.3112 21.0423 49.0645 21.2255 50.6797 21.268C50.7073 21.9771 50.6832 22.6618 50.6149 23.3222L50.1662 23.5533H49.3445L50.3972 23.7587L50.5096 24.1182C50.2036 26.0159 49.5346 27.7008 48.692 29.1765L48.0093 29.6901L47.7525 30.648C47.6245 30.829 47.4945 31.0061 47.3629 31.1793H47.0592L47.0222 31.6158C45.664 33.3084 44.192 34.6061 43.105 35.5188L41.3076 29.3819L41.7441 28.7657C41.7098 28.4405 41.4308 27.79 40.5886 27.79C39.5359 27.79 38.0979 29.4333 38.0979 34.0295H37.3276V40.6028L37.1222 40.8082V55.0847L37.3276 55.2901V57.1131L37.7128 57.4983V60.2457L35.9668 59.4241L34.2464 60.2457V57.4983L34.6315 57.1131V55.2901L34.837 55.0847V40.8082L34.6315 40.6028V34.0295H33.8612C33.8612 29.4333 32.4233 27.79 31.3706 27.79C30.5284 27.79 30.2493 28.4405 30.2151 28.7657L30.6516 29.3819L28.8542 35.5188C27.5685 34.4392 25.7441 32.821 24.2067 30.648L24.3864 29.2792L23.2672 29.1765C22.4246 27.7008 21.7556 26.0159 21.4496 24.1182L21.5619 23.7587L22.6147 23.5533H21.793L21.3443 23.3222C21.276 22.6618 21.2519 21.9771 21.2795 21.268C22.8947 21.2255 23.648 21.0423 24.5148 20.1941L24.9 20.1382L25.7216 20.5234L24.9256 20.0355L24.8743 19.8132C24.9413 19.7373 25.0097 19.6574 25.0797 19.5733C26.0041 18.4641 25.773 16.5564 25.5419 15.7413C26.0465 15.4492 26.573 15.18 27.1082 14.9333L27.8271 15.2853L28.1096 14.5005C29.9766 13.7438 31.8468 13.2508 33.168 13ZM34.118 21.5505L34.4518 21.9099V25.1966C33.4761 25.1966 32.8342 23.81 32.8342 22.9113C32.8342 22.1924 33.6901 21.7045 34.118 21.5505ZM29.7585 28.1285C29.8006 28.2134 29.842 28.2893 29.8813 28.3549C29.8382 28.2995 29.7971 28.2228 29.7585 28.1285C29.3326 27.2706 28.821 25.4873 29.4191 24.0668C30.2408 22.1153 31.2935 21.3964 33.6045 21.268C32.5945 21.3622 30.4565 21.9921 29.6759 24.0668C29.2737 25.1357 29.421 27.3046 29.7585 28.1285ZM37.8412 21.5505L37.5074 21.9099V25.1966C38.4831 25.1966 39.125 23.81 39.125 22.9113C39.125 22.1924 38.2691 21.7045 37.8412 21.5505ZM42.0779 28.3549C42.1172 28.2893 42.1586 28.2134 42.2007 28.1285C42.5382 27.3046 42.6855 25.1357 42.2833 24.0668C41.5027 21.9921 39.3647 21.3622 38.3547 21.268C40.6657 21.3964 41.7184 22.1153 42.5401 24.0668C43.1382 25.4873 42.6266 27.2706 42.2007 28.1285C42.1621 28.2228 42.121 28.2995 42.0779 28.3549Z" fill="url(#paint0_linear_1020_667)"/>
    <path d="M34.4517 18.1097V19.5733V21.9099V25.1966L34.6314 34.0295V40.6028L34.8368 40.8082H37.1221L37.3275 40.6028V34.0295L37.5072 25.1966V21.9099V19.5733V18.1097L37.2761 17.5962H35.9666H34.6828L34.4517 18.1097Z" fill="#B0A2FC"/>
    <path d="M33.168 13C31.8468 13.2508 29.9766 13.7438 28.1096 14.5005L27.8271 15.2853L27.1082 14.9333C26.573 15.18 26.0465 15.4492 25.5419 15.7413C25.773 16.5564 26.0041 18.4641 25.0797 19.5733C25.0097 19.6574 24.9413 19.7373 24.8743 19.8132L24.9256 20.0355L25.7216 20.5234L24.9 20.1382L24.5148 20.1941C23.648 21.0423 22.8947 21.2255 21.2795 21.268C21.2519 21.9771 21.276 22.6618 21.3443 23.3222L21.793 23.5533H22.6147L21.5619 23.7587L21.4496 24.1182C21.7556 26.0159 22.4246 27.7008 23.2672 29.1765L24.3864 29.2792L24.2067 30.648C25.7441 32.821 27.5685 34.4392 28.8542 35.5188L29.5363 33.2078L29.1833 32.9431C28.7686 32.6207 27.8326 31.8801 27.2286 31.3021C26.4991 30.6041 25.8792 29.8936 25.4772 29.4002L27.0553 27.1076L24.5864 28.0594C23.6691 26.2969 23.5969 24.0439 23.6841 23.039C25.1869 22.3186 26.1673 21.1336 26.7822 19.9452C27.3911 18.7683 27.6458 17.5805 27.6951 16.8163L27.9478 16.5637L28.8238 17.5695L28.7572 16.1708C28.7572 16.1708 29.3298 15.9409 29.907 15.7474C30.3385 15.6028 31.1532 15.4458 31.599 15.3653L32.181 15.2853L33.168 13Z" fill="url(#paint1_linear_1020_667)"/>
    <path d="M43.8496 14.5005L44.3631 14.9515L44.851 14.9333C45.3861 15.18 45.9127 15.4492 46.4173 15.7413C46.2895 16.192 46.1617 16.9768 46.2293 17.7759L45.2618 19.0598C45.3029 19.0598 45.861 18.94 46.1349 18.88L46.5411 19.0341C46.631 19.2273 46.7426 19.409 46.8795 19.5733C46.9495 19.6574 47.0179 19.7373 47.0849 19.8132L47.0336 20.0355L47.0592 20.1382L47.4444 20.1941C48.3112 21.0423 49.0645 21.2255 50.6797 21.268C50.7073 21.9771 50.6832 22.6618 50.6149 23.3222L50.1662 23.5533H49.3445L50.3972 23.7587L50.5096 24.1182C50.2036 26.0159 49.5346 27.7008 48.692 29.1765L48.0093 29.6901L47.7525 30.648C47.6245 30.829 47.4945 31.0061 47.3629 31.1793H47.0592L47.0222 31.6158C45.664 33.3084 44.192 34.6061 43.105 35.5188L42.4206 33.1821L42.6537 33.0179C42.9982 32.7518 44.0479 31.9307 44.7049 31.3021C45.4344 30.6041 46.0543 29.8936 46.4563 29.4002L47.3471 28.0594C48.2644 26.2969 48.3366 24.0439 48.2494 23.039C46.7466 22.3186 45.7662 21.1336 45.1513 19.9452C45.0427 19.7352 42.6171 20.6261 42.6171 20.6261C42.6171 20.6261 44.7543 19.0586 44.7081 18.9314C44.4122 18.1164 44.2735 17.3594 44.2384 16.8163L43.9858 16.5637L43.1763 16.1708C43.1763 16.1708 42.6037 15.9409 42.0265 15.7474C41.5556 15.5896 40.6282 15.417 40.2221 15.3452L39.8071 15.3109L38.7912 13C39.3692 13.1097 40.0522 13.2658 40.794 13.47L40.7684 14.4122L41.0508 13.5419C41.935 13.7941 42.8927 14.1126 43.8496 14.5005Z" fill="url(#paint2_linear_1020_667)"/>

    <style type="text/css">
        <![CDATA[
            .loader-spinner {
                stroke: #897BD6;
                stroke-width: 2.3;
                stroke-linecap: round;
            }

            .set-origin {
                -webkit-transform-origin: 36px 36.5px;
                transform-origin: 36px 36.5px;
            }
        ]]>
    </style>

    <g filter="url(#filter0_f_1020_667)"> <circle class="loader-spinner set-origin" cx="36" cy="36.5" r="31"/> </g>
    <circle class="loader-spinner set-origin" cx="36" cy="36.5" r="31"/>
    <circle class="loader-dot set-origin" cx="36" cy="5.4" r="1.7" fill="#B0A2FC"/>

    <defs>
        <filter id="filter0_f_1020_667" x="0" y="0.622864" width="72" height="72" filterUnits="userSpaceOnUse" color-interpolation-filters="sRGB">
            <feFlood flood-opacity="0" result="BackgroundImageFix"/>
            <feBlend mode="normal" in="SourceGraphic" in2="BackgroundImageFix" result="shape"/>
            <feGaussianBlur stdDeviation="2" result="effect1_foregroundBlur_1020_667"/>
        </filter>
        <linearGradient id="paint0_linear_1020_667" x1="35.9796" y1="13" x2="35.9796" y2="60.2457" gradientUnits="userSpaceOnUse">
            <stop stop-color="#8678D7"/>
            <stop offset="0.60632" stop-color="#8C80D3"/>
            <stop offset="1" stop-color="#7264C5"/>
        </linearGradient>
        <linearGradient id="paint1_linear_1020_667" x1="35.9796" y1="13" x2="35.9796" y2="35.5188" gradientUnits="userSpaceOnUse">
            <stop stop-color="#CDCEFC"/>
            <stop offset="1" stop-color="#8678D7"/>
        </linearGradient>
        <linearGradient id="paint2_linear_1020_667" x1="35.9796" y1="13" x2="35.9796" y2="35.5188" gradientUnits="userSpaceOnUse">
            <stop stop-color="#CDCEFC"/>
            <stop offset="1" stop-color="#8678D7"/>
        </linearGradient>
    </defs>
</svg>
