<svg width="512" height="512" xmlns="http://www.w3.org/2000/svg" version="1.1">
<g>
	<g>
		<path stroke="none" fill="#0036bf" d="M392.566,159.4c-0.649-79.601-31.851-134.481-80.25-141.944l-1.443-10.127c-0.324-2.246-1.52-4.261-3.339-5.619
			c-1.81-1.358-4.09-1.947-6.327-1.622l-92.99,13.287c-4.671,0.666-7.916,4.995-7.25,9.666l1.605,11.229
			c-0.709,0.179-1.417,0.307-2.075,0.692c-52.122,30.126-68.688,71.677-77.346,122.859c-34.293,13.773-55.008,33.157-55.008,55.316
			c0,11.997,6.242,23.149,17.24,33.072c-0.12,0.922,42.712,207.763,42.712,207.763c0.06,0.273,0.128,0.555,0.213,0.828
			c10.64,33.678,63.146,57.203,127.693,57.203c66.963,0,118.308-23.107,127.906-58.031c0,0,42.832-206.841,42.712-207.763
			c10.998-9.922,17.24-21.074,17.24-33.072C443.86,191.797,424.595,173.054,392.566,159.4z M116.285,210.472
			c-1.221,10.887-2.545,22.167-4.022,33.712c-17.326-9.606-27.043-20.545-27.043-31.048c0-11.989,12.723-24.541,34.933-35.044
			C118.779,188.544,117.541,199.311,116.285,210.472z M205.134,52.218l0.658,4.637c0.324,2.246,1.52,4.261,3.339,5.619
			c1.486,1.119,3.288,1.708,5.123,1.708c0.401,0,0.811-0.026,1.213-0.085l92.99-13.287c4.671-0.666,7.916-4.995,7.25-9.666
			l-0.837-5.858c35.497,9.077,58.509,53.642,60.482,117.634c-32.021-10.477-73.214-16.634-119.35-16.634
			c-43.797,0-83.051,5.593-114.312,15.123C149.895,109.609,165.129,76.836,205.134,52.218z M256.001,272.909
			c-52.891,0-97.217-8.735-127.505-21.1c1.819-13.645,3.339-26.778,4.756-39.425c1.648-14.704,3.228-28.555,5.149-41.653
			c29.724-10.341,70.208-17.368,117.6-17.368c100.641,0,170.781,31.5,170.781,59.773S356.642,272.909,256.001,272.909z"/>
	</g>
</g>
</svg>
