<svg width="491" height="491" xmlns="http://www.w3.org/2000/svg" version="1.1">
<g>
	<g>
		<path fill="none" d="M229.335,150.885c0-10.61-8.589-19.208-19.2-19.208c-10.61,0-19.207,8.597-19.207,19.208
			c0,10.611,8.597,19.2,19.207,19.2C220.746,170.085,229.335,161.496,229.335,150.885z"/>
		<path fill="none" d="M274.258,185.904h-57.349c-1.605,0-3.049,0.963-3.661,2.439c-0.617,1.484-0.279,3.188,0.86,4.318
			l28.661,28.677c1.55,1.542,4.062,1.542,5.611,0l28.686-28.677c1.123-1.131,1.46-2.834,0.85-4.318
			C277.299,186.867,275.862,185.904,274.258,185.904z"/>
		<path fill="none" d="M281.032,131.677c-10.61,0-19.199,8.597-19.199,19.208c0,10.611,8.589,19.2,19.199,19.2
			c10.61,0,19.206-8.589,19.206-19.2C300.238,140.274,291.642,131.677,281.032,131.677z"/>
		<g>
			<path fill="#0036bf" d="M288.513,79.162c-20.548-28.87-18.253-60.501-15.78-74.516c0.265-1.509-0.362-3.026-1.613-3.917
				c-1.235-0.883-2.89-0.972-4.223-0.224c-21.647,12.111-26.47,41.07-26.47,41.07c-16.847-5.947-35.02-3.917-45.164-1.927
				c-1.477,0.281-2.648,1.373-3.05,2.826c-0.402,1.437,0.048,2.985,1.155,3.996c8.773,7.923,16.871,19.079,23.14,28.855
				c-63.985,14.054-112.03,73.505-112.03,144.747c0,9.234,0.885,18.257,2.434,27.023l23.78,23.816l22.834,22.826l22.835-22.834
				l23.195-23.189l23.189,23.197l22.842,22.826l22.835-22.826l23.188-23.197l23.197,23.189l22.833,22.834l22.836-22.826
				l23.776-23.74c1.557-8.788,2.445-17.833,2.445-27.099C386.698,154.079,345.449,98.216,288.513,79.162z M190.928,150.885
				c0-10.61,8.597-19.208,19.207-19.208c10.611,0,19.2,8.597,19.2,19.208c0,10.611-8.589,19.2-19.2,19.2
				C199.525,170.085,190.928,161.496,190.928,150.885z M277.067,192.662l-28.686,28.677c-1.55,1.542-4.062,1.542-5.611,0
				l-28.661-28.677c-1.14-1.131-1.477-2.834-0.86-4.318c0.612-1.476,2.056-2.439,3.661-2.439h57.349
				c1.603,0,3.041,0.963,3.658,2.439C278.527,189.828,278.19,191.531,277.067,192.662z M281.032,170.085
				c-10.61,0-19.199-8.589-19.199-19.2c0-10.61,8.589-19.208,19.199-19.208c10.61,0,19.206,8.597,19.206,19.208
				C300.238,161.496,291.642,170.085,281.032,170.085z"/>
		</g>
	</g>
	<path fill="#0036bf" d="M383.671,294.098l-46.022,46.031l-46.039-46.031l-46.023,46.031l-46.031-46.031l-46.037,46.031l-46.022-46.031
		l-31.512,31.511c13.997,85.079,84.509,165.559,169.602,165.559c85.087,0,155.599-80.48,169.596-165.55L383.671,294.098z"/>
</g>
</svg>
